# Blender v2.78 (sub 0) OBJ File: 'ARROW.blend'
# www.blender.org
mtllib arrow.mtl
o Curve_Mesh
v -0.086622 0.002500 0.000048
v 0.105349 0.002500 -0.227215
v 0.106229 0.002500 -0.228786
v 0.106914 0.002500 -0.230449
v 0.107403 0.002500 -0.232183
v 0.107697 0.002500 -0.233964
v 0.107794 0.002500 -0.235767
v 0.107697 0.002500 -0.237571
v 0.107403 0.002500 -0.239351
v 0.106914 0.002500 -0.241085
v 0.106229 0.002500 -0.242749
v 0.105349 0.002500 -0.244320
v 0.104273 0.002500 -0.245774
v 0.103044 0.002500 -0.247047
v 0.101716 0.002500 -0.248088
v 0.100309 0.002500 -0.248898
v 0.098844 0.002500 -0.249476
v 0.097338 0.002500 -0.249823
v 0.095814 0.002500 -0.249939
v 0.094289 0.002500 -0.249823
v 0.092784 0.002500 -0.249476
v 0.091318 0.002500 -0.248898
v 0.089911 0.002500 -0.248088
v 0.088584 0.002500 -0.247047
v -0.113121 0.002500 -0.008452
v -0.114002 0.002500 -0.006882
v -0.114686 0.002500 -0.005218
v -0.115175 0.002500 -0.003484
v -0.115469 0.002500 -0.001704
v -0.115567 0.002500 0.000100
v -0.115469 0.002500 0.001904
v -0.115175 0.002500 0.003684
v -0.114686 0.002500 0.005418
v -0.114002 0.002500 0.007082
v -0.113121 0.002500 0.008653
v -0.112045 0.002500 0.010107
v 0.087354 0.002500 0.245870
v 0.087946 0.002500 0.246524
v 0.089217 0.002500 0.247674
v 0.090584 0.002500 0.248605
v 0.092023 0.002500 0.249312
v 0.093508 0.002500 0.249789
v 0.095015 0.002500 0.250030
v 0.095769 0.002500 0.250061
v 0.097279 0.002500 0.249947
v 0.098778 0.002500 0.249603
v 0.100243 0.002500 0.249026
v 0.101649 0.002500 0.248214
v 0.102971 0.002500 0.247162
v 0.104185 0.002500 0.245870
v 0.105261 0.002500 0.244415
v 0.106141 0.002500 0.242844
v 0.106826 0.002500 0.241180
v 0.107315 0.002500 0.239447
v 0.107608 0.002500 0.237666
v 0.107706 0.002500 0.235863
v 0.107608 0.002500 0.234059
v 0.107315 0.002500 0.232279
v 0.106826 0.002500 0.230545
v 0.106141 0.002500 0.228881
v 0.105261 0.002500 0.227310
v -0.086622 -0.002500 0.000048
v 0.105349 -0.002500 -0.227215
v 0.106229 -0.002500 -0.228786
v 0.106914 -0.002500 -0.230449
v 0.107403 -0.002500 -0.232183
v 0.107697 -0.002500 -0.233964
v 0.107794 -0.002500 -0.235767
v 0.107697 -0.002500 -0.237571
v 0.107403 -0.002500 -0.239351
v 0.106914 -0.002500 -0.241085
v 0.106229 -0.002500 -0.242749
v 0.105349 -0.002500 -0.244320
v 0.104273 -0.002500 -0.245774
v 0.103044 -0.002500 -0.247047
v 0.101716 -0.002500 -0.248088
v 0.100309 -0.002500 -0.248898
v 0.098844 -0.002500 -0.249476
v 0.097338 -0.002500 -0.249823
v 0.095814 -0.002500 -0.249939
v 0.094289 -0.002500 -0.249823
v 0.092784 -0.002500 -0.249476
v 0.091318 -0.002500 -0.248898
v 0.089911 -0.002500 -0.248088
v 0.088584 -0.002500 -0.247047
v -0.113121 -0.002500 -0.008452
v -0.114002 -0.002500 -0.006882
v -0.114686 -0.002500 -0.005218
v -0.115175 -0.002500 -0.003484
v -0.115469 -0.002500 -0.001704
v -0.115567 -0.002500 0.000100
v -0.115469 -0.002500 0.001904
v -0.115175 -0.002500 0.003684
v -0.114686 -0.002500 0.005418
v -0.114002 -0.002500 0.007082
v -0.113121 -0.002500 0.008653
v -0.112045 -0.002500 0.010107
v 0.087354 -0.002500 0.245870
v 0.087946 -0.002500 0.246524
v 0.089217 -0.002500 0.247674
v 0.090584 -0.002500 0.248605
v 0.092023 -0.002500 0.249312
v 0.093508 -0.002500 0.249789
v 0.095015 -0.002500 0.250030
v 0.095769 -0.002500 0.250061
v 0.097279 -0.002500 0.249947
v 0.098778 -0.002500 0.249603
v 0.100243 -0.002500 0.249026
v 0.101649 -0.002500 0.248214
v 0.102971 -0.002500 0.247162
v 0.104185 -0.002500 0.245870
v 0.105261 -0.002500 0.244415
v 0.106141 -0.002500 0.242844
v 0.106826 -0.002500 0.241180
v 0.107315 -0.002500 0.239447
v 0.107608 -0.002500 0.237666
v 0.107706 -0.002500 0.235863
v 0.107608 -0.002500 0.234059
v 0.107315 -0.002500 0.232279
v 0.106826 -0.002500 0.230545
v 0.106141 -0.002500 0.228881
v 0.105261 -0.002500 0.227310
vn 0.0000 1.0000 -0.0000
vn 0.0000 -1.0000 -0.0000
vn -0.6707 0.0000 0.7417
vn -0.0403 0.0000 0.9992
vn 0.0753 0.0000 0.9972
vn -0.4411 0.0000 0.8974
vn -0.9624 0.0000 -0.2715
vn -0.9867 0.0000 0.1626
vn 0.3664 0.0000 0.9305
vn 0.9867 0.0000 -0.1626
vn -0.5629 0.0000 0.8265
vn 0.8039 0.0000 -0.5947
vn -0.3058 0.0000 0.9521
vn 0.7290 0.0000 0.6845
vn -0.6171 0.0000 -0.7869
vn 0.9624 0.0000 0.2715
vn 0.9248 0.0000 0.3805
vn -0.0757 0.0000 -0.9971
vn 0.9985 0.0000 -0.0542
vn -0.7637 0.0000 0.6456
vn -0.9867 0.0000 -0.1626
vn -0.7637 0.0000 -0.6456
vn 0.8724 0.0000 0.4889
vn -0.9624 0.0000 0.2715
vn 0.8724 0.0000 -0.4889
vn 0.5004 0.0000 0.8658
vn 0.6223 0.0000 0.7827
vn 0.7639 0.0000 0.6453
vn 0.9985 0.0000 0.0542
vn 0.4990 0.0000 -0.8666
vn -0.4990 0.0000 -0.8666
vn 0.0757 0.0000 -0.9971
vn 0.9248 0.0000 -0.3805
vn -0.1581 0.0000 0.9874
vn 0.8039 0.0000 0.5947
vn -0.9985 0.0000 -0.0542
vn 0.2236 0.0000 0.9747
vn 0.7641 0.0000 -0.6451
vn -0.9248 0.0000 0.3805
vn -0.3671 0.0000 -0.9302
vn 0.6171 0.0000 -0.7869
vn -0.8724 0.0000 -0.4889
vn 0.9624 0.0000 -0.2715
vn 0.9867 0.0000 0.1626
vn 0.2247 0.0000 -0.9744
vn -0.9985 0.0000 0.0542
vn -0.8724 0.0000 0.4889
vn 0.7192 0.0000 -0.6948
vn -0.9248 0.0000 -0.3805
vn -0.2247 0.0000 -0.9744
vn 0.3671 0.0000 -0.9302
usemtl SVGMat
s off
f 25//1 26//1 27//1 28//1 29//1 30//1 31//1 32//1 33//1 34//1 35//1 36//1 37//1 38//1 39//1 40//1 41//1 42//1 43//1 44//1 45//1 46//1 47//1 48//1 49//1 50//1 51//1 52//1 53//1 54//1 55//1 56//1 57//1 58//1 59//1 60//1 61//1 1//1 2//1 3//1 4//1 5//1 6//1 7//1 8//1 9//1 10//1 11//1 12//1 13//1 14//1 15//1 16//1 17//1 18//1 19//1 20//1 21//1 22//1 23//1 24//1
f 100//2 99//2 98//2 97//2 96//2 95//2 94//2 93//2 92//2 91//2 90//2 89//2 88//2 87//2 86//2 85//2 84//2 83//2 82//2 81//2 80//2 79//2 78//2 77//2 76//2 75//2 74//2 73//2 72//2 71//2 70//2 69//2 68//2 67//2 66//2 65//2 64//2 63//2 62//2 122//2 121//2 120//2 119//2 118//2 117//2 116//2 115//2 114//2 113//2 112//2 111//2 110//2 109//2 108//2 107//2 106//2 105//2 104//2 103//2 102//2 101//2
f 39//3 38//3 99//3 100//3
f 44//4 43//4 104//4 105//4
f 45//5 44//5 105//5 106//5
f 41//6 40//6 101//6 102//6
f 28//7 27//7 88//7 89//7
f 32//8 31//8 92//8 93//8
f 47//9 46//9 107//9 108//9
f 9//10 8//10 69//10 70//10
f 40//11 39//11 100//11 101//11
f 13//12 12//12 73//12 74//12
f 42//13 41//13 102//13 103//13
f 50//14 49//14 110//14 111//14
f 24//15 23//15 84//15 85//15
f 5//16 4//16 65//16 66//16
f 53//17 52//17 113//17 114//17
f 20//18 19//18 80//18 81//18
f 57//19 56//19 117//19 118//19
f 36//20 35//20 96//20 97//20 98//20 99//20 38//20 37//20
f 29//21 28//21 89//21 90//21
f 25//22 24//22 85//22 86//22
f 52//23 51//23 112//23 113//23
f 33//24 32//24 93//24 94//24
f 12//25 11//25 72//25 73//25
f 48//26 47//26 108//26 109//26
f 49//27 48//27 109//27 110//27
f 2//28 1//28 62//28 63//28
f 56//29 55//29 116//29 117//29
f 16//30 15//30 76//30 77//30
f 23//31 22//31 83//31 84//31
f 19//32 18//32 79//32 80//32
f 8//19 7//19 68//19 69//19
f 60//33 59//33 120//33 121//33
f 4//17 3//17 64//17 65//17
f 43//34 42//34 103//34 104//34
f 51//35 50//35 111//35 112//35
f 30//36 29//36 90//36 91//36
f 46//37 45//37 106//37 107//37
f 11//33 10//33 71//33 72//33
f 61//38 122//38 62//38 1//38
f 61//25 60//25 121//25 122//25
f 34//39 33//39 94//39 95//39
f 22//40 21//40 82//40 83//40
f 15//41 14//41 75//41 76//41
f 26//42 25//42 86//42 87//42
f 59//43 58//43 119//43 120//43
f 7//29 6//29 67//29 68//29
f 55//44 54//44 115//44 116//44
f 18//45 17//45 78//45 79//45
f 3//23 2//23 63//23 64//23
f 31//46 30//46 91//46 92//46
f 10//43 9//43 70//43 71//43
f 35//47 34//47 95//47 96//47
f 14//48 13//48 74//48 75//48
f 27//49 26//49 87//49 88//49
f 21//50 20//50 81//50 82//50
f 6//44 5//44 66//44 67//44
f 54//16 53//16 114//16 115//16
f 58//10 57//10 118//10 119//10
f 17//51 16//51 77//51 78//51
